<svg width="99" height="35" viewBox="0 0 99 35" fill="none" xmlns="http://www.w3.org/2000/svg">
<path opacity="0.25" d="M-2.43957 23.4948C-2.83991 23.6199 -3.02757 23.5949 -3.00255 23.4197C-3.00255 23.2696 -2.91497 23.182 -2.73982 23.157C-2.31446 23.0819 -1.90161 22.9193 -1.50127 22.6691C-1.10093 22.4189 -0.750637 22.1311 -0.450382 21.8058C-0.0500424 21.3805 0.500424 20.6549 1.20102 19.629C1.90161 18.6031 2.73982 17.4021 3.71565 16.0259C4.7165 14.6248 5.82994 13.1985 7.05598 11.7473C8.23198 10.3711 9.59564 8.89489 11.147 7.31856C12.7233 5.74222 14.3872 4.11584 16.1387 2.43942C16.3389 2.26427 16.5265 2.18921 16.7017 2.21423C16.8768 2.23925 16.9894 2.3018 17.0395 2.40189C17.0895 2.47695 17.0019 2.5395 16.7767 2.58955C16.6016 2.61457 16.4264 2.71465 16.2513 2.8898C16.1012 3.03993 15.9886 3.15252 15.9135 3.22759C15.2379 3.87814 14.4623 4.79141 13.5865 5.96741C12.7108 7.11839 11.735 8.41949 10.659 9.87072C9.60815 11.322 8.46968 12.8357 7.24364 14.4121C6.0176 15.9634 4.7165 17.4772 3.34033 18.9534C1.96417 20.4047 0.512935 21.7183 -1.01336 22.8943C-1.18851 23.0194 -1.33864 23.0319 -1.46374 22.9318C-1.61387 22.8317 -1.50127 22.7191 -1.12595 22.594C-0.275233 22.3188 0.750637 21.7308 1.95166 20.83C3.15267 19.9042 4.46629 18.7908 5.8925 17.4897C7.31871 16.1886 8.79496 14.7999 10.3213 13.3237C11.8475 11.8474 13.3738 10.3962 14.9001 8.96996C16.4515 7.51873 17.9277 6.20511 19.3289 5.02912C20.7301 3.8281 22.0187 2.8898 23.1947 2.21423C23.4949 2.03908 23.6576 2.02657 23.6826 2.1767C23.7326 2.32682 23.6826 2.43942 23.5325 2.51448C23.4074 2.56453 23.0946 2.7647 22.5942 3.11499C22.0937 3.44027 21.7059 3.74052 21.4307 4.01576C21.2305 4.21593 20.8802 4.70384 20.3798 5.4795C19.9044 6.23014 19.3289 7.16843 18.6533 8.29439C17.9777 9.42034 17.2271 10.6464 16.4014 11.9725C15.6007 13.2736 14.7625 14.5747 13.8868 15.8758C13.0361 17.1769 12.1853 18.3779 11.3346 19.4789C10.4839 20.5798 9.68321 21.4806 8.93258 22.1812C8.80747 22.2812 8.73241 22.2938 8.70738 22.2187C8.68236 22.1436 8.69487 22.031 8.74492 21.8809C8.79496 21.7308 8.87002 21.6182 8.97011 21.5431C10.2212 20.4672 11.5098 19.2537 12.8359 17.9025C14.187 16.5514 15.5507 15.1752 16.9269 13.774C18.328 12.3478 19.7167 10.9717 21.0929 9.64553C22.4941 8.31941 23.8702 7.1309 25.2214 6.08001C26.5725 5.02912 27.8861 4.1909 29.1622 3.56537C30.4383 2.93984 31.6518 2.62708 32.8028 2.62708C33.5034 2.62708 34.1665 2.77721 34.792 3.07746C35.4426 3.37772 35.7678 3.89065 35.7678 4.61627C35.7678 5.2418 35.5677 5.76724 35.1673 6.1926C34.767 6.61796 34.2791 6.94324 33.7036 7.16843C33.1531 7.3686 32.6027 7.46869 32.0522 7.46869C31.2765 7.46869 30.6885 7.31856 30.2882 7.0183C29.8878 6.69303 29.6376 6.40528 29.5376 6.15507C29.4375 5.92988 29.525 5.76724 29.8003 5.66716C30.0755 5.56707 30.2131 5.64214 30.2131 5.89235C30.2131 6.29269 30.4258 6.60545 30.8512 6.83064C31.2765 7.03081 31.7269 7.1309 32.2023 7.1309C32.6277 7.1309 33.053 7.03081 33.4784 6.83064C33.9038 6.63047 34.2541 6.34273 34.5293 5.96741C34.8295 5.56707 34.9797 5.11669 34.9797 4.61627C34.9797 4.16588 34.7545 3.80308 34.3041 3.52784C33.8787 3.22759 33.3783 3.07746 32.8028 3.07746C31.6769 3.07746 30.4758 3.39023 29.1998 4.01576C27.9237 4.64129 26.6226 5.4795 25.2965 6.53039C23.9703 7.55626 22.6317 8.71975 21.2805 10.0208C19.9544 11.2969 18.6533 12.6105 17.3772 13.9617C16.1012 15.2878 14.8751 16.5639 13.6991 17.7899C12.5481 18.991 11.4722 20.0418 10.4714 20.9426C9.82083 21.5431 9.23283 22.0435 8.70738 22.4439C8.20696 22.8442 7.55641 23.1945 6.75573 23.4948C6.35539 23.6449 6.14271 23.6199 6.11769 23.4197C6.11769 23.2446 6.26782 23.1195 6.56807 23.0444C7.06849 22.9193 7.5439 22.6441 7.99428 22.2187C8.44466 21.7683 8.83249 21.2053 9.15777 20.5298C9.65819 19.5039 10.3213 18.3279 11.147 17.0018C11.9977 15.6756 12.911 14.312 13.8868 12.9108C14.8626 11.5096 15.8384 10.1835 16.8143 8.93243C17.8151 7.65634 18.7159 6.5429 19.5166 5.59209C20.3172 4.64129 20.9553 3.96571 21.4307 3.56537C21.5308 3.46529 21.5433 3.55286 21.4682 3.8281C21.3931 4.07831 21.1179 4.35354 20.6425 4.6538C19.3164 5.52954 17.9027 6.66801 16.4014 8.06919C14.9001 9.44536 13.3488 10.9341 11.7475 12.5355C10.1711 14.1368 8.56977 15.6882 6.94339 17.1894C5.31701 18.6907 3.71565 20.0168 2.13931 21.1678C0.562977 22.2938 -0.963317 23.0694 -2.43957 23.4948ZM-7.61896 9.87072C-7.56892 9.32026 -7.3062 8.69473 -6.83079 7.99413C-6.35539 7.29354 -5.72986 6.63047 -4.9542 6.00494C-4.17854 5.35439 -3.3028 4.81644 -2.32697 4.39107C-1.35115 3.96571 -0.337787 3.75303 0.713105 3.75303C1.764 3.75303 2.80238 3.90316 3.82825 4.20342C4.85412 4.50367 5.81743 4.81644 6.7182 5.14171C7.64398 5.44197 8.45717 5.59209 9.15777 5.59209C9.9084 5.59209 10.6215 5.45448 11.2971 5.17924C11.9727 4.90401 12.5481 4.60376 13.0235 4.27848C13.524 3.9532 13.8367 3.72801 13.9618 3.60291C14.162 3.42776 14.2746 3.37772 14.2996 3.45278C14.3497 3.50282 14.3121 3.60291 14.187 3.75303C14.112 3.85312 13.8242 4.12835 13.3238 4.57873C12.8484 5.0041 12.1728 5.41695 11.2971 5.81728C10.4213 6.21762 9.38296 6.41779 8.18194 6.41779C7.28118 6.41779 6.49301 6.34273 5.81743 6.1926C5.16688 6.04248 4.54135 5.87984 3.94084 5.70469C3.36535 5.50452 2.76484 5.32937 2.13931 5.17924C1.53881 5.02912 0.838211 4.95405 0.0375318 4.95405C-0.888253 4.95405 -1.77651 5.1292 -2.62723 5.4795C-3.50297 5.8298 -4.27863 6.26767 -4.9542 6.79311C-5.62977 7.31856 -6.15522 7.85651 -6.53054 8.40698C-6.93088 8.93243 -7.11854 9.38281 -7.09352 9.75813C-7.06849 10.0083 -7.15607 10.1835 -7.35624 10.2836C-7.55641 10.3837 -7.64398 10.246 -7.61896 9.87072ZM28.3735 23.0819C27.1975 23.0819 26.4218 22.8192 26.0465 22.2938C25.6712 21.7433 25.4835 21.1678 25.4835 20.5673C25.4835 19.5414 25.7462 18.5906 26.2717 17.7149C26.7971 16.8141 27.4727 16.0134 28.2984 15.3128C29.1241 14.6122 29.9748 14.0743 30.8506 13.699C31.7513 13.2986 32.552 13.0985 33.2526 13.0985C33.753 13.0985 34.1534 13.1735 34.4536 13.3237C34.7539 13.4488 34.904 13.724 34.904 14.1494C34.904 14.5497 34.6663 14.9751 34.1909 15.4254C33.7155 15.8758 33.115 16.3137 32.3894 16.739C31.6638 17.1394 30.9006 17.5147 30.0999 17.865C29.3243 18.1903 28.6112 18.453 27.9606 18.6532C27.3101 18.8533 26.8347 18.9534 26.5344 18.9534C26.5344 18.9534 26.5344 18.8909 26.5344 18.7658C26.5344 18.6156 26.5344 18.5406 26.5344 18.5406C26.7596 18.5656 27.1474 18.4905 27.6979 18.3154C28.2734 18.1402 28.9114 17.915 29.612 17.6398C30.3126 17.3396 30.9882 17.0018 31.6387 16.6265C32.3143 16.2511 32.8648 15.8508 33.2901 15.4254C33.7405 15.0001 33.9657 14.5872 33.9657 14.1869C33.9657 13.9867 33.9032 13.8116 33.7781 13.6614C33.678 13.5113 33.4903 13.4362 33.2151 13.4362C32.8147 13.4362 32.3268 13.6364 31.7513 14.0368C31.2009 14.4121 30.6379 14.9125 30.0624 15.538C29.4869 16.1636 28.949 16.8266 28.4485 17.5272C27.9481 18.2278 27.5353 18.9034 27.21 19.5539C26.9097 20.1795 26.7596 20.7049 26.7596 21.1303C26.7596 21.6307 26.9097 22.006 27.21 22.2562C27.5102 22.5064 27.9481 22.6315 28.5236 22.6315C29.5245 22.6315 30.4627 22.3938 31.3385 21.9184C32.2393 21.418 33.0524 20.8425 33.7781 20.192C34.5037 19.5164 35.1167 18.8909 35.6171 18.3154C36.1175 17.7149 36.4553 17.327 36.6305 17.1519C36.6305 17.1519 36.668 17.1894 36.7431 17.2645C36.8432 17.3396 36.8932 17.3771 36.8932 17.3771C36.7181 17.5773 36.3803 17.9776 35.8798 18.5781C35.3794 19.1786 34.7539 19.8292 34.0033 20.5298C33.2526 21.2304 32.4019 21.8309 31.4511 22.3313C30.5003 22.8317 29.4744 23.0819 28.3735 23.0819ZM36.88 23.0819C36.1794 23.0819 35.6915 22.9193 35.4163 22.594C35.141 22.2437 35.0034 21.7058 35.0034 20.9801C35.0034 20.2295 35.2536 19.4038 35.7541 18.503C36.2545 17.6023 36.9175 16.7516 37.7432 15.9509C38.594 15.1252 39.5448 14.4496 40.5957 13.9242C41.6466 13.3987 42.7225 13.136 43.8234 13.136C44.4239 13.136 44.8368 13.2611 45.0619 13.5113C45.3122 13.7365 45.4373 14.0117 45.4373 14.337C45.4623 14.6623 45.3872 14.9375 45.2121 15.1627C45.2121 15.1627 45.137 15.2378 44.9869 15.3879C44.8618 15.538 44.7367 15.7007 44.6116 15.8758C44.4865 16.0259 44.4239 16.101 44.4239 16.101C44.9243 15.2253 45.0995 14.5997 44.9494 14.2244C44.8242 13.8241 44.4739 13.6239 43.8985 13.6239C43.4731 13.6239 42.9351 13.8241 42.2846 14.2244C41.6591 14.6248 40.9835 15.1502 40.2579 15.8008C39.5573 16.4513 38.8942 17.1519 38.2687 17.9025C37.6432 18.6532 37.1302 19.3788 36.7299 20.0794C36.3546 20.78 36.1669 21.3805 36.1669 21.8809C36.1669 22.1311 36.2545 22.3188 36.4296 22.4439C36.6048 22.569 36.83 22.6315 37.1052 22.6315C37.4805 22.6315 37.9184 22.4814 38.4188 22.1812C38.9192 21.8809 39.4322 21.5056 39.9576 21.0552C40.4831 20.6048 40.971 20.1544 41.4214 19.7041C41.8717 19.2537 42.2345 18.8659 42.5098 18.5406C42.81 18.2153 42.9727 18.0276 42.9977 17.9776C43.0978 17.8525 43.3855 17.4396 43.8609 16.739C44.3614 16.0385 44.9869 15.1627 45.7375 14.1118C46.4882 13.0609 47.2888 11.9225 48.1396 10.6964C49.0153 9.44536 49.8785 8.20681 50.7293 6.98077C51.58 5.72971 52.3681 4.59124 53.0938 3.56537C53.8194 2.5395 54.4074 1.70129 54.8578 1.05074C55.3081 0.40019 55.5583 0.0498933 55.6084 -0.000148487C55.8586 0.124957 56.0963 0.212531 56.3215 0.262573C56.5717 0.287594 56.947 0.275084 57.4475 0.225042C57.3974 0.300106 57.0972 0.725466 56.5467 1.50112C55.9962 2.25176 55.2831 3.2401 54.4074 4.46614C53.5316 5.69218 52.5808 7.03081 51.555 8.48204C50.5291 9.93328 49.4907 11.3845 48.4398 12.8357C47.4139 14.287 46.4631 15.6256 45.5874 16.8516C44.7116 18.0777 43.9985 19.0785 43.4481 19.8542C42.8976 20.6048 42.5974 21.0177 42.5473 21.0927C42.4472 21.2429 42.3346 21.443 42.2095 21.6932C42.1094 21.9184 42.0594 22.1311 42.0594 22.3313C42.0594 22.5315 42.1595 22.6315 42.3597 22.6315C43.1103 22.6315 43.8484 22.4189 44.574 21.9935C45.3247 21.5431 46.0253 21.0052 46.6758 20.3796C47.3514 19.7541 47.9394 19.1536 48.4398 18.5781C48.9402 17.9776 49.3406 17.5147 49.6408 17.1894L49.9411 17.4146C49.6659 17.7649 49.253 18.2528 48.7025 18.8784C48.1521 19.5039 47.514 20.1419 46.7884 20.7925C46.0878 21.418 45.3497 21.956 44.574 22.4064C43.7984 22.8567 43.0477 23.0819 42.3221 23.0819C41.8467 23.0819 41.4839 22.9944 41.2337 22.8192C40.9835 22.6691 40.8584 22.4564 40.8584 22.1812C40.8584 21.8559 40.971 21.4931 41.1962 21.0927C41.4464 20.6924 41.7091 20.3171 41.9843 19.9668C42.2596 19.5915 42.4597 19.3287 42.5848 19.1786C42.5848 19.1786 42.5598 19.1786 42.5098 19.1786C42.4848 19.1536 42.4723 19.1411 42.4723 19.1411C42.4472 19.1661 42.2471 19.3788 41.8717 19.7791C41.5214 20.1795 41.0586 20.6424 40.4831 21.1678C39.9326 21.6682 39.3446 22.1186 38.7191 22.5189C38.0935 22.8943 37.4805 23.0819 36.88 23.0819ZM49.9648 23.0819C49.2642 23.0819 48.7763 22.9193 48.5011 22.594C48.2259 22.2437 48.0882 21.7058 48.0882 20.9801C48.0882 20.2295 48.3385 19.4038 48.8389 18.503C49.3393 17.6023 50.0024 16.7516 50.8281 15.9509C51.6788 15.1252 52.6296 14.4496 53.6805 13.9242C54.7314 13.3987 55.8073 13.136 56.9082 13.136C57.5087 13.136 57.9216 13.2611 58.1468 13.5113C58.397 13.7365 58.5221 14.0117 58.5221 14.337C58.5471 14.6623 58.472 14.9375 58.2969 15.1627C58.2969 15.1627 58.2218 15.2378 58.0717 15.3879C57.9466 15.538 57.8215 15.7007 57.6964 15.8758C57.5713 16.0259 57.5087 16.101 57.5087 16.101C58.0092 15.2253 58.1843 14.5997 58.0342 14.2244C57.9091 13.8241 57.5588 13.6239 56.9833 13.6239C56.5579 13.6239 56.02 13.8241 55.3694 14.2244C54.7439 14.6248 54.0683 15.1502 53.3427 15.8008C52.6421 16.4513 51.979 17.1519 51.3535 17.9025C50.728 18.6532 50.215 19.3788 49.8147 20.0794C49.4394 20.78 49.2517 21.3805 49.2517 21.8809C49.2517 22.1311 49.3393 22.3188 49.5145 22.4439C49.6896 22.569 49.9148 22.6315 50.19 22.6315C50.5653 22.6315 51.0032 22.4814 51.5036 22.1812C52.0041 21.8809 52.517 21.5056 53.0424 21.0552C53.5679 20.6048 54.0558 20.1544 54.5062 19.7041C54.9566 19.2537 55.3194 18.8659 55.5946 18.5406C55.8949 18.2153 56.0575 18.0276 56.0825 17.9776C56.1826 17.8525 56.4704 17.4396 56.9458 16.739C57.4462 16.0385 58.0717 15.1627 58.8223 14.1118C59.573 13.0609 60.3737 11.9225 61.2244 10.6964C62.1001 9.44536 62.9634 8.20681 63.8141 6.98077C64.6648 5.72971 65.453 4.59124 66.1786 3.56537C66.9042 2.5395 67.4922 1.70129 67.9426 1.05074C68.393 0.40019 68.6432 0.0498933 68.6932 -0.000148487C68.9434 0.124957 69.1811 0.212531 69.4063 0.262573C69.6565 0.287594 70.0319 0.275084 70.5323 0.225042C70.4822 0.300106 70.182 0.725466 69.6315 1.50112C69.081 2.25176 68.3679 3.2401 67.4922 4.46614C66.6165 5.69218 65.6657 7.03081 64.6398 8.48204C63.6139 9.93328 62.5755 11.3845 61.5246 12.8357C60.4988 14.287 59.548 15.6256 58.6722 16.8516C57.7965 18.0777 57.0834 19.0785 56.5329 19.8542C55.9824 20.6048 55.6822 21.0177 55.6321 21.0927C55.5321 21.2429 55.4195 21.443 55.2944 21.6932C55.1943 21.9184 55.1442 22.1311 55.1442 22.3313C55.1442 22.5315 55.2443 22.6315 55.4445 22.6315C56.1951 22.6315 56.9332 22.4189 57.6589 21.9935C58.4095 21.5431 59.1101 21.0052 59.7606 20.3796C60.4362 19.7541 61.0242 19.1536 61.5246 18.5781C62.0251 17.9776 62.4254 17.5147 62.7257 17.1894L63.0259 17.4146C62.7507 17.7649 62.3378 18.2528 61.7874 18.8784C61.2369 19.5039 60.5989 20.1419 59.8732 20.7925C59.1726 21.418 58.4345 21.956 57.6589 22.4064C56.8832 22.8567 56.1326 23.0819 55.407 23.0819C54.9315 23.0819 54.5687 22.9944 54.3185 22.8192C54.0683 22.6691 53.9432 22.4564 53.9432 22.1812C53.9432 21.8559 54.0558 21.4931 54.281 21.0927C54.5312 20.6924 54.7939 20.3171 55.0692 19.9668C55.3444 19.5915 55.5446 19.3287 55.6697 19.1786C55.6697 19.1786 55.6447 19.1786 55.5946 19.1786C55.5696 19.1536 55.5571 19.1411 55.5571 19.1411C55.5321 19.1661 55.3319 19.3788 54.9566 19.7791C54.6063 20.1795 54.1434 20.6424 53.5679 21.1678C53.0174 21.6682 52.4294 22.1186 51.8039 22.5189C51.1784 22.8943 50.5653 23.0819 49.9648 23.0819ZM61.9612 23.0819C61.6109 23.0819 61.2231 22.9818 60.7978 22.7817C60.3474 22.6065 60.1222 22.3063 60.1222 21.8809C60.1222 21.3555 60.3599 20.6924 60.8353 19.8917C61.3107 19.091 61.8987 18.2653 62.5993 17.4146C63.2749 16.5639 63.9379 15.7632 64.5885 15.0126C65.239 14.2619 65.7269 13.6739 66.0522 13.2486C66.3274 13.2736 66.6527 13.2861 67.028 13.2861C67.4284 13.2861 67.7787 13.2736 68.0789 13.2486C67.7286 13.6739 67.2657 14.2119 66.6903 14.8625C66.1398 15.513 65.5518 16.2136 64.9263 16.9642C64.3257 17.6899 63.7377 18.403 63.1623 19.1036C62.6118 19.8041 62.1614 20.4297 61.8111 20.9801C61.4608 21.5306 61.2857 21.931 61.2857 22.1812C61.2857 22.3563 61.3607 22.4814 61.5109 22.5565C61.661 22.6315 61.9112 22.6691 62.2615 22.6691C62.862 22.6691 63.5251 22.4439 64.2507 21.9935C65.0013 21.5181 65.7269 20.9551 66.4275 20.3046C67.1281 19.654 67.7537 19.041 68.3041 18.4655C68.8546 17.865 69.2424 17.4271 69.4676 17.1519L69.7679 17.4146C69.5427 17.6648 69.1548 18.1027 68.6044 18.7282C68.0789 19.3287 67.4409 19.9668 66.6903 20.6424C65.9646 21.3179 65.189 21.8934 64.3633 22.3688C63.5626 22.8442 62.7619 23.0819 61.9612 23.0819ZM69.4676 10.3962C69.1674 10.3962 68.9422 10.3086 68.792 10.1334C68.6419 9.93328 68.5668 9.70808 68.5668 9.45787C68.5668 9.18264 68.717 8.8949 69.0172 8.59464C69.3175 8.29439 69.6302 8.14426 69.9555 8.14426C70.3058 8.14426 70.556 8.24434 70.7062 8.44451C70.8563 8.61966 70.9313 8.79481 70.9313 8.96996C70.9313 9.34528 70.7812 9.68306 70.481 9.98332C70.1807 10.2586 69.8429 10.3962 69.4676 10.3962ZM77.3384 23.0819C76.0123 23.0819 75.3493 22.6941 75.3493 21.9184C75.3493 21.418 75.5119 20.8801 75.8372 20.3046C76.1875 19.7291 76.6128 19.1536 77.1133 18.5781C77.6137 17.9776 78.1141 17.3896 78.6145 16.8141C79.14 16.2386 79.5653 15.7132 79.8906 15.2378C80.2409 14.7373 80.4161 14.312 80.4161 13.9617C80.4161 13.8366 80.3535 13.7365 80.2284 13.6614C80.1283 13.5614 79.9782 13.5113 79.778 13.5113C79.4778 13.5113 79.0524 13.6614 78.5019 13.9617C77.9765 14.2619 77.3009 14.7749 76.4752 15.5005C75.6745 16.2011 74.7237 17.1519 73.6228 18.3529C72.5219 19.5289 71.2583 21.0052 69.8321 22.7817C69.6069 22.7316 69.2691 22.7066 68.8187 22.7066C68.3683 22.7066 67.9805 22.7567 67.6552 22.8567C68.3808 21.8058 69.094 20.78 69.7945 19.7791C70.4951 18.7783 71.1332 17.865 71.7087 17.0393C72.3092 16.2136 72.7846 15.538 73.1349 15.0126C73.4852 14.4621 73.6603 14.1243 73.6603 13.9992C73.6603 13.774 73.5477 13.6614 73.3225 13.6614C73.0723 13.6614 72.7596 13.8616 72.3842 14.2619C72.0089 14.6373 71.5961 15.1252 71.1457 15.7257C70.6953 16.3012 70.2324 16.8892 69.757 17.4897L69.4192 17.2645C69.9197 16.689 70.4076 16.0885 70.883 15.463C71.3584 14.8374 71.8463 14.2995 72.3467 13.8491C72.8471 13.3987 73.3726 13.1735 73.923 13.1735C74.1983 13.1735 74.4485 13.2486 74.6737 13.3987C74.9239 13.5238 75.049 13.7365 75.049 14.0368C75.049 14.312 74.9364 14.6498 74.7112 15.0501C74.511 15.4254 74.2358 15.8633 73.8855 16.3637C73.5352 16.8391 73.1349 17.3771 72.6845 17.9776C72.2591 18.5531 71.8088 19.1786 71.3334 19.8542L71.3709 20.0794C72.697 18.6281 73.8105 17.4522 74.7112 16.5514C75.637 15.6506 76.4001 14.9625 77.0007 14.4871C77.6262 13.9867 78.1641 13.6489 78.6145 13.4738C79.0899 13.2736 79.5403 13.1735 79.9657 13.1735C80.5412 13.1735 80.954 13.2986 81.2042 13.5488C81.4544 13.774 81.5795 14.0868 81.5795 14.4871C81.5795 15.0876 81.4044 15.7257 81.0541 16.4013C80.7038 17.0518 80.2659 17.7024 79.7405 18.3529C79.2401 18.9784 78.7271 19.5664 78.2017 20.1169C77.7013 20.6424 77.2759 21.0927 76.9256 21.4681C76.5753 21.8434 76.4001 22.0936 76.4001 22.2187C76.4001 22.3688 76.4377 22.4814 76.5127 22.5565C76.6128 22.6315 76.8505 22.6691 77.2258 22.6691C78.1516 22.6691 79.0274 22.3813 79.8531 21.8058C80.7038 21.2304 81.517 20.5298 82.2926 19.7041C83.0683 18.8533 83.7939 18.0151 84.4695 17.1894L84.7697 17.4522C84.0942 18.2528 83.356 19.091 82.5554 19.9668C81.7547 20.8425 80.9165 21.5807 80.0407 22.1812C79.165 22.7817 78.2642 23.0819 77.3384 23.0819ZM91.4659 13.1735C92.2166 13.1735 92.7295 13.2861 93.0048 13.5113C93.305 13.7365 93.4551 14.0368 93.4551 14.4121C93.4551 14.7624 93.3676 15.1252 93.1924 15.5005C93.0173 15.8508 92.8296 16.1761 92.6294 16.4763C92.4543 16.7766 92.3417 16.9767 92.2917 17.0768C92.1415 17.327 91.9664 17.4897 91.7662 17.5647C91.566 17.6148 91.6286 17.4146 91.9539 16.9642C92.3792 16.4138 92.692 15.8883 92.8922 15.3879C93.0923 14.8625 93.1048 14.4371 92.9297 14.1118C92.7796 13.7615 92.3542 13.5864 91.6536 13.5864C91.1782 13.5864 90.6152 13.7991 89.9647 14.2244C89.3391 14.6248 88.6886 15.1627 88.013 15.8383C87.3374 16.4888 86.6994 17.2019 86.0989 17.9776C85.5234 18.7282 85.048 19.4539 84.6727 20.1544C84.3224 20.83 84.1472 21.4055 84.1472 21.8809C84.1472 22.2312 84.2223 22.4439 84.3724 22.5189C84.5226 22.594 84.7102 22.6315 84.9354 22.6315C85.5109 22.6315 86.174 22.3813 86.9246 21.8809C87.6752 21.3555 88.4509 20.6924 89.2516 19.8917C90.0523 19.091 90.8154 18.2653 91.541 17.4146C92.2917 16.5389 92.9422 15.7507 93.4927 15.0501C94.0431 14.3245 94.431 13.7991 94.6562 13.4738C94.9314 13.5488 95.2066 13.5989 95.4819 13.6239C95.7821 13.6239 96.1699 13.5864 96.6453 13.5113C94.9939 15.4129 93.4551 17.3521 92.0289 19.3287C90.6027 21.3054 89.2391 23.1945 87.938 24.9961C86.6369 26.7976 85.3608 28.3989 84.1097 29.8001C82.8336 31.2263 81.545 32.3523 80.2439 33.178C78.9428 34.0037 77.5792 34.4165 76.153 34.4165C75.6776 34.4165 75.3022 34.3165 75.027 34.1163C74.7268 33.9161 74.5766 33.6534 74.5766 33.3281C74.5766 32.7777 74.8644 32.2022 75.4399 31.6017C76.0153 31.0262 76.766 30.4632 77.6918 29.9127C78.6176 29.3623 79.6184 28.8243 80.6943 28.2989C81.7452 27.7984 82.7711 27.348 83.7719 26.9477C84.7478 26.5474 85.5735 26.2096 86.249 25.9343C87.425 25.4589 88.601 24.8584 89.777 24.1328C90.953 23.4072 92.0539 22.619 93.0798 21.7683C94.1307 20.9176 95.0565 20.0919 95.8572 19.2912C96.6829 18.4905 97.3209 17.7774 97.7713 17.1519C97.7713 17.1519 97.8088 17.2019 97.8839 17.302C97.984 17.4021 98.034 17.4522 98.034 17.4522C97.4085 18.2779 96.5453 19.2287 95.4443 20.3046C94.3434 21.3555 93.0298 22.4064 91.5035 23.4572C89.9772 24.5081 88.2632 25.4339 86.3616 26.2346C85.7111 26.5098 84.9104 26.8476 83.9596 27.248C83.0088 27.6483 82.0204 28.0862 80.9946 28.5616C79.9687 29.062 79.0054 29.5749 78.1046 30.1004C77.2039 30.6508 76.4782 31.1888 75.9278 31.7142C75.3523 32.2647 75.0645 32.7902 75.0645 33.2906C75.0645 33.4657 75.1521 33.6409 75.3273 33.816C75.5024 33.9912 75.7776 34.0788 76.153 34.0788C76.8536 34.0788 77.6292 33.7785 78.4799 33.178C79.3307 32.5775 80.2314 31.7893 81.1822 30.8135C82.108 29.8377 83.0463 28.7743 83.9971 27.6233C84.9229 26.4973 85.8112 25.3714 86.6619 24.2454C87.5126 23.1195 88.2757 22.1061 88.9513 21.2053C89.6519 20.3046 90.2149 19.629 90.6402 19.1786C90.6402 19.1786 90.6152 19.1661 90.5652 19.1411C90.5402 19.1161 90.5277 19.1036 90.5277 19.1036C90.4276 19.2287 90.1774 19.5039 89.777 19.9293C89.4017 20.3296 88.9263 20.78 88.3508 21.2804C87.7753 21.7558 87.1623 22.1812 86.5117 22.5565C85.8612 22.9068 85.2232 23.0819 84.5976 23.0819C83.9471 23.0819 83.5092 22.8943 83.284 22.5189C83.0338 22.1436 82.9087 21.7183 82.9087 21.2429C82.9087 20.4422 83.1339 19.579 83.5843 18.6532C84.0096 17.7274 84.6101 16.8516 85.3858 16.0259C86.1865 15.2002 87.0997 14.5247 88.1256 13.9992C89.1765 13.4488 90.29 13.1735 91.4659 13.1735Z" fill="#122622"/>
</svg>
